<?xml version="1.0" encoding="utf-8"?>
<!-- Generator: Adobe Illustrator 21.1.0, SVG Export Plug-In . SVG Version: 6.00 Build 0)  -->
<svg version="1.1" id="Layer_1" xmlns="http://www.w3.org/2000/svg" xmlns:xlink="http://www.w3.org/1999/xlink" x="0px" y="0px"
	 viewBox="0 0 281.3 149.2" style="enable-background:new 0 0 281.3 149.2;" xml:space="preserve">
<style type="text/css">
	.st0{fill-rule:evenodd;clip-rule:evenodd;}
</style>
<g>
	<path d="M59.5,149.2c-1.2,0-2.6-0.9-2.8-1.8c-0.3-1-1.2-5.4-1.4-6.3c0-0.2-0.5-0.3-0.9-0.4c-0.7-0.2-1.7-0.5-2.3-1.4
		c-0.5-0.8-0.7-1.7-0.8-2.6c-0.1-0.8-0.2-1.6-0.7-2.3c-0.6-1.1-3.5-4.2-5.8-6.8c-1.1-1.2-2-2.2-2.6-2.9l-0.3-0.3
		c-1.9-2.3-6-7-8.4-11.9c-1.8-3.6-4.2-5.6-5.4-6.4c0,2.3-0.1,8.3,0.3,10.2c0.3,1.6,0.1,3.4,0,5.1c-0.1,1-0.2,1.9-0.2,2.7
		c0,0.7,0,2.5-1.6,2.5c-0.4,0-1-0.1-1.6-0.3c-1.1-0.3-2.3-1.1-3.7-1.9c-0.8-0.5-1.6-1-2.5-1.5c-2.6-1.4-4.2-2.6-4.3-2.7l-0.1,0
		l0-0.1c-1.2-1.7-1.6-3.1-1.1-4.2c0.9-1.8,3.7-1.9,3.8-1.9l0.1,0l2.7,1V113l2-0.3c0.2-0.5,0.7-1.7,0.6-2.9c-0.2-1.6-2.4-16.9-3.3-22
		c-0.2-1.2,0-2.3,0.6-3.1c0.8-1,1.9-1.4,2.7-1.5C22,82,20.7,79.3,20,78c-0.5-0.9-0.7-2.6-1-4.7c-0.3-2.2-0.6-4.8-1.3-6.7
		c-0.9-2.4-2.1-2.9-3.1-2.9c-0.6,0-1,0.2-1.1,0.3c-0.2,0.1-0.5,0.3-0.9,0.5c-1.5,0.8-4.3,2.2-7.2,4.1c-0.7,0.5-1.4,0.7-2,0.7
		c-2.4,0-3.2-3.5-3.2-6.5c0-2.4,0.7-7.5,1.5-9.4c0.4-0.9,0.4-1.9,0.4-2.9c0-0.8,0-1.6,0.3-2.2C2.4,47.6,3,47.3,4,47.3
		c1.4,0,3.3,0.5,3.4,0.6L7.6,48l0.1,0.2c0.3,0.5,1.5,3.3,0.4,4.5c-0.7,0.8-1.9,0.9-2.7,0.9c-0.1,0-0.1,0-0.2,0l0.2,7
		c1.3-0.4,3.3-1.2,3.9-1.6l0.4-0.3c1.1-0.8,3.2-2.3,3.9-4.1c0.8-1.9,2.6-2.2,4.1-2.4c0.5-0.1,0.9-0.2,1.3-0.3
		c0.3-0.1,0.7-0.2,1.3-0.2c1.1,0,2.5,0.2,3.6,0.4c-0.5-0.5-1-1.1-1.3-1.5c-0.6-0.9-0.8-2.3-0.9-3.6c0-0.3-0.1-0.7-0.1-1
		c0-0.1-0.8-5.8-0.5-7.9c0.3-2,2.9-3.3,7.2-3.6c0.1,0,0.2,0,0.4,0c4.1,0,5.8,4.5,5.8,6.4l0,0.7c0,2,0.1,5.5-1,6.9
		c-0.7,0.9-0.2,2.1,0.1,2.6c0.8,0.1,3.5,0.3,4.7,0.5c0.1,0,0.2,0,0.4,0c0.3,0,0.8-0.1,1.3-0.1c1.1-0.1,2.7-0.3,5.1-0.3
		c2,0,4.3,0.1,6.7,0.4c8.4,0.9,9.3,5.2,9.8,7.6c0.1,0.4,0.2,0.7,0.2,1c0.6,1.8,3.3,6.4,4.5,8.3l0.2,0.3c0.7,1.3,1.4,1.6,2.2,2.1
		c0.3,0.2,0.7,0.4,1.2,0.7c1.6,1.1,0.7,3.2,0.1,4.5c-0.1,0.2-0.1,0.3-0.2,0.4c-0.5,1.2-1.7,1.5-2.6,1.6c-0.2,0-0.4,0.1-0.6,0.1
		c-0.1,0-0.2,0-0.3,0c-0.3,0-0.6-0.1-0.8-0.4c-0.5-0.6-0.4-2-0.2-2.7c0.1-0.4,0-0.7-0.2-0.9c-0.1-0.1-0.2-0.2-0.4-0.2
		c-0.1,0-0.2,0-0.3,0.1c-1,0.8-1.8,0.9-1.9,0.9l-0.6,0l0.1-0.6c0-0.1,0.3-2.5,0.4-3.7c0.1-0.5-0.8-1.7-1.4-2.5
		c-0.5-0.7-0.9-1.3-1.2-1.8c-0.3-0.7-1.9-2.8-3.2-4.6c-1-1.2-1.9-2.4-2.3-3.1c-0.4-0.6-1-0.9-1.9-0.9c-0.7,0-1.4,0.2-1.9,0.3
		l-0.4,0.1c-1.1,0.2-3.8,1.6-4.8,3.4c-0.3,0.5-0.6,1-1,1.5c-1.2,1.7-2.6,3.9-2.9,6.7c-0.4,3.2-0.8,7.7,0,9.7
		c0.6,1.5,1.4,2.5,2.2,3.6c0.2,0.3,0.5,0.6,0.7,0.9c0.9,1.2,1.3,4.2,1.6,7.5c0.1,0.6,0.1,1.1,0.2,1.5c0.2,1.4-1.8,3-3.6,4.4
		c-0.7,0.5-1.5,1.2-1.6,1.4c-0.4,0.8-0.4,4.3-0.2,5.5c0.2,1.1,2.8,7,3.9,9.3c1.3,2.6,2.9,4.9,4.6,6.4c1.5,1.3,2.5,3.9,3.2,5.8
		c0.3,0.7,0.5,1.3,0.7,1.6c0.6,1.3,2.3,1.9,5.2,1.9c1.2,0,2.1,0.3,2.7,1c0.6,0.8,0.5,1.7,0.4,1.8c0,0-0.5,4.8-0.5,6.7
		c0,0.7,0.1,1.7,0.1,2.8c0.1,2,0.3,4.3,0.1,5.8C61.1,148.6,60.5,149.2,59.5,149.2"/>
	<polygon class="st0" points="44.5,135.8 74.2,135.8 77.6,125 60.7,125 63.8,114.9 79.1,114.9 82.3,104.5 67.1,104.5 69.8,95.8 
		86.1,95.8 89.4,85 60.4,85 	"/>
	<polygon class="st0" points="77,135.8 89,135.8 98.8,104.4 98.9,104.4 97.7,135.8 111.7,135.8 127.5,85 115.5,85 105.8,116.3 
		105.7,116.3 107.2,85 92.9,85 	"/>
	<polygon class="st0" points="115.9,135.8 145.5,135.8 148.9,125 132,125 135.2,114.9 150.4,114.9 153.6,104.5 138.4,104.5 
		141.1,95.8 157.4,95.8 160.7,85 131.7,85 	"/>
	<path class="st0" d="M148.4,135.8h12.8l6.3-20.3h3.4c3.1,0,3.7,1.5,1.9,7.3l-1.1,3.4c-0.7,2.1-2.2,7-1.8,9.7h13.6l0.2-0.7
		c-0.7-0.4-0.8-1-1-1.6c-0.3-1,0.8-4.4,1.6-7l1.4-4.3c2.1-6.8,1.5-10.8-4.5-11.4l0-0.1c6.1-0.9,10-5.3,12.1-12.1
		c2.4-7.8,0.5-13.5-9.3-13.5h-20L148.4,135.8z M174,94.5h2.5c3.8,0,4.9,1.8,3.6,5.9c-1.1,3.6-3.6,6-7.2,6h-2.5L174,94.5z"/>
	<path d="M208.2,117.2h4.5c-2.8,8.9-5,10.7-7.7,10.7c-3.9,0-3.2-3.7,1.1-17.4c4.3-13.7,5.8-17.4,10-17.4c1.5,0,2.2,0.8,2.3,2.2
		c0.1,1.4-0.4,3.3-1.2,5.9h12.4c3.8-12.3-1.1-17.1-10.2-17.1c-15.1,0-21.2,9.4-26.5,26.4c-5.2,16.8-7.1,26.4,5.9,26.4
		c4.3,0,9.2-1.1,12.3-5.5h0.1l-1.1,4.5h8.7l8.6-27.6H211L208.2,117.2z"/>
	<polygon class="st0" points="230.7,135.8 243.5,135.8 249.7,115.8 271.8,85 257.8,85 247.5,102.7 247.4,102.7 248.1,85 234,85 
		237,115.8 	"/>
	<path class="st0" d="M83,43.6h18c1.4-4.7,4.2-6.7,7.5-6.7c3.6,0,4.7,3.1,2,11.9c-4.7,15.1-7.1,16.9-10.9,16.9
		c-3.4,0-4.8-2.1-2.5-9.5l0.8-2.7H79.3L78.5,56c-4.4,14.2,0.3,22.5,17.8,22.5c18.8,0,28-10.2,34.4-30.6c5.2-16.7,1-24.9-11.2-24.9
		c-5.7,0-11.1,2.2-15.8,5.8l5-13.2h28.8L142.3,0h-44L83,43.6z"/>
	<polygon class="st0" points="129.8,61.8 151.2,61.8 154.6,50.9 133.1,50.9 	"/>
	<path class="st0" d="M148.4,76.9h12.4l7.9-25.4c1-3.2,2.2-4.6,4.4-4.6c2.2,0,2.6,1.4,1.6,4.6l-7.9,25.4h12.4l9.1-29.1
		c2.5-8.1-1.4-10.5-6.4-10.5c-3,0-6.9,1.2-10.2,5.3h-0.1l5.2-16.6h-12.4L148.4,76.9z"/>
	<path class="st0" d="M218.2,57.7c3.5-11.1,5-20.3-9.5-20.3c-14,0-19,10.1-22.1,20.2c-3.5,11.1-5,20.3,9.5,20.3
		C210.1,77.9,215.1,67.8,218.2,57.7 M199,57.7c3-9.8,4.4-12,7.2-12c2.8,0,2.7,2.3-0.3,12c-3,9.7-4.3,12-7.2,12
		C195.9,69.7,196,67.4,199,57.7"/>
	<path class="st0" d="M216.6,67.5c-2.6,8.3,1,10.5,6.4,10.5c4.3,0,8-1.9,10.8-5.7h0.1l-1.5,4.7h12l12-38.6h-12.4l-7.9,25.4
		c-1,3.2-2.2,4.6-4.4,4.6c-2.2,0-2.6-1.4-1.6-4.6l7.9-25.4h-12.4L216.6,67.5z"/>
	<path class="st0" d="M246.6,76.9H259l6.5-21c1.6-5.1,4.7-6.8,9.1-6.8c1,0,2,0.1,3,0.3l3.7-12h-2c-3.6,0-7.7,2.5-10.5,7.1h-0.1
		l1.9-6.1h-12L246.6,76.9z"/>
</g>
</svg>
