<?xml version="1.0" standalone="no"?>
<!DOCTYPE svg PUBLIC "-//W3C//DTD SVG 20010904//EN"
 "http://www.w3.org/TR/2001/REC-SVG-20010904/DTD/svg10.dtd">
<svg version="1.0" xmlns="http://www.w3.org/2000/svg"
 width="2081.000000pt" height="2081.000000pt" viewBox="0 0 2081.000000 2081.000000"
 preserveAspectRatio="xMidYMid meet">
<metadata>
Created by potrace 1.11, written by Peter Selinger 2001-2013
</metadata>
<g transform="translate(0.000000,2081.000000) scale(0.100000,-0.100000)"
fill="#000000" stroke="none">
<path d="M1400 19355 l0 -1455 535 0 535 0 -2 -4147 -3 -4148 -530 0 -530 0 0
-1455 0 -1454 2726 0 2725 0 0 -2230 -1 -2229 1118 -1118 1119 -1118 3659 0
3659 0 1118 1118 1117 1117 0 3927 0 3927 50 1 c27 0 197 0 378 0 l327 0 0
1312 0 1312 -2232 0 -2233 0 0 -1310 0 -1310 335 -2 c184 -1 364 -2 400 -2
l65 -1 0 -3325 0 -3325 -265 -264 -264 -265 -2454 0 -2454 0 -264 264 -264
264 0 1628 0 1629 1083 -1 c595 0 1091 2 1102 6 11 4 553 540 1205 1191 l1185
1185 -1 2274 c-1 1251 -2 2277 -3 2282 0 4 -224 230 -496 502 -272 272 -495
497 -495 499 0 4 58 75 224 270 22 27 46 54 51 60 6 6 39 45 74 86 35 41 68
76 72 78 5 2 9 8 9 14 0 6 8 18 18 27 9 9 39 43 67 76 27 33 52 62 55 65 3 3
28 32 55 65 28 33 53 62 56 65 3 3 25 30 50 60 l44 55 -1 1400 c-1 770 -2
1405 -3 1410 -1 6 -16 26 -34 45 -18 19 -52 60 -77 90 -25 30 -52 62 -60 70
-8 8 -49 55 -90 105 -41 49 -85 101 -97 115 -11 14 -54 63 -94 110 -39 47 -94
110 -120 141 -27 31 -59 69 -71 85 -13 16 -32 38 -43 50 -11 11 -38 43 -60 69
-22 27 -96 115 -165 195 -69 81 -197 231 -285 335 -88 103 -164 193 -170 199
-14 15 -167 197 -185 220 -8 10 -22 26 -31 35 -9 9 -51 59 -95 111 -43 52 -81
97 -84 100 -6 6 -98 113 -126 148 -11 13 -28 34 -39 46 -11 12 -49 57 -85 99
l-64 77 -5323 0 -5323 0 0 -1455z m9342 -1506 c23 -29 48 -57 53 -63 6 -6 35
-40 65 -76 30 -35 60 -70 66 -76 5 -6 26 -31 45 -54 18 -23 39 -47 44 -54 6
-6 51 -58 100 -116 50 -58 92 -107 95 -110 4 -4 5 -607 1 -672 -1 -10 -9 -25
-19 -35 -10 -10 -56 -63 -103 -118 -46 -55 -86 -102 -89 -105 -3 -3 -27 -32
-55 -65 -55 -66 -101 -120 -126 -145 -8 -9 -22 -25 -30 -37 -8 -11 -32 -40
-53 -64 l-40 -43 -2650 -1 c-1871 0 -2653 3 -2660 11 -8 7 -10 290 -8 942 l2
932 2659 0 2659 0 44 -51z m354 -5081 l338 -338 0 -1074 0 -1074 -339 -339
-340 -338 -490 0 -490 0 -3 245 -2 245 397 0 398 0 2 1308 c1 719 -1 1308 -5
1308 -4 1 -1018 2 -2254 3 -1492 1 -2249 -2 -2251 -9 -2 -9 0 -2588 2 -2607 1
-3 164 -6 364 -7 199 0 378 0 397 0 l36 -1 0 -240 c0 -132 -2 -241 -5 -241 -3
-1 -336 -2 -738 -3 l-733 -1 0 187 c0 104 0 838 0 1633 0 795 0 1498 0 1563
l0 117 2689 0 2689 0 338 -337z"/>
</g>
</svg>
