<?xml version="1.0" standalone="no"?>
<!DOCTYPE svg PUBLIC "-//W3C//DTD SVG 20010904//EN"
 "http://www.w3.org/TR/2001/REC-SVG-20010904/DTD/svg10.dtd">
<svg version="1.0" xmlns="http://www.w3.org/2000/svg"
 width="158.000000pt" height="158.000000pt" viewBox="0 0 158.000000 158.000000"
 preserveAspectRatio="xMidYMid meet">
<metadata>
Created by potrace 1.11, written by Peter Selinger 2001-2013
</metadata>
<g transform="translate(0.000000,158.000000) scale(0.100000,-0.100000)"
fill="#000000" stroke="none">
<path d="M574 1356 c-9 -7 -11 -16 -5 -25 7 -11 39 -14 140 -14 l131 0 0 -47
c0 -35 -5 -52 -20 -65 -39 -35 -12 -105 40 -105 44 0 66 27 61 77 0 6 -8 19
-17 28 -11 10 -17 37 -18 80 -1 36 -6 68 -10 72 -12 12 -285 11 -302 -1z m304
-198 c-5 -15 -23 -11 -26 6 -2 11 2 14 13 10 9 -4 14 -11 13 -16z"/>
<path d="M1007 1333 c-4 -3 -7 -66 -7 -140 l0 -133 -149 0 -150 0 1 51 c0 36
5 56 19 70 40 40 13 109 -43 109 -51 0 -82 -78 -42 -107 16 -12 18 -29 19
-141 1 -70 -1 -134 -3 -142 -3 -13 -35 -15 -220 -14 -119 0 -225 -2 -235 -4
-10 -3 -17 -12 -15 -21 2 -12 17 -17 56 -19 l52 -3 0 -199 c0 -198 5 -225 34
-201 10 9 13 55 12 206 l-2 195 161 -2 160 -3 0 -55 0 -55 -84 -3 c-74 -3 -86
0 -103 18 -24 26 -62 26 -88 0 -28 -28 -25 -64 6 -89 34 -27 52 -26 81 1 21
19 35 22 123 23 55 1 103 4 106 8 4 4 7 79 7 167 l0 160 161 0 c113 0 166 4
174 12 13 13 18 271 6 302 -6 16 -26 21 -37 9z m-312 -102 c7 -12 -12 -24 -25
-16 -11 7 -4 25 10 25 5 0 11 -4 15 -9z m-257 -532 c-2 -6 -8 -10 -13 -10 -5
0 -11 4 -13 10 -2 6 4 11 13 11 9 0 15 -5 13 -11z"/>
<path d="M384 1249 c-4 -6 -7 -51 -6 -100 l0 -89 -52 -1 c-88 -2 -91 -3 -91
-24 0 -19 8 -20 123 -23 108 -2 126 -5 145 -23 22 -20 57 -19 83 2 20 17 22
59 4 81 -21 26 -77 29 -95 5 -7 -9 -25 -17 -41 -17 l-29 0 0 88 c1 81 -6 112
-26 112 -4 0 -11 -5 -15 -11z m174 -217 c2 -7 -3 -12 -12 -12 -9 0 -16 7 -16
16 0 17 22 14 28 -4z"/>
<path d="M1157 1233 c-4 -3 -7 -36 -7 -73 0 -54 -4 -70 -20 -85 -48 -44 2
-119 64 -95 46 17 54 60 19 101 -8 10 -14 40 -14 75 -1 68 -19 101 -42 77z
m31 -195 c-6 -18 -28 -21 -28 -4 0 9 7 16 16 16 9 0 14 -5 12 -12z"/>
<path d="M783 933 c-20 -7 -19 -716 1 -732 25 -21 33 11 34 129 0 63 1 127 1
142 l1 26 88 -1 c68 0 92 -5 111 -19 63 -48 136 13 95 80 -19 28 -73 30 -98 3
-15 -17 -31 -19 -107 -19 l-89 1 0 174 0 173 264 0 c211 0 266 3 275 14 8 10
8 16 -1 23 -13 10 -549 15 -575 6z m292 -423 c-5 -8 -11 -8 -17 -2 -6 6 -7 16
-3 22 5 8 11 8 17 2 6 -6 7 -16 3 -22z"/>
<path d="M1053 843 c-28 -19 -30 -62 -4 -91 23 -27 62 -28 86 -2 16 18 31 20
127 20 90 0 110 3 115 16 10 26 -17 34 -121 34 -72 0 -104 4 -115 14 -26 23
-64 27 -88 9z m49 -48 c0 -5 -5 -11 -11 -13 -6 -2 -11 4 -11 13 0 9 5 15 11
13 6 -2 11 -8 11 -13z"/>
<path d="M877 702 c-37 -40 -7 -104 48 -104 15 0 34 8 44 19 15 16 31 19 107
18 l89 -1 3 -124 c3 -126 10 -153 35 -132 10 8 13 45 12 151 -1 77 -4 143 -8
147 -3 4 -55 7 -115 8 -89 1 -112 4 -126 19 -23 22 -68 22 -89 -1z m54 -45
c-1 -12 -15 -9 -19 4 -3 6 1 10 8 8 6 -3 11 -8 11 -12z"/>
<path d="M435 550 c-25 -27 -22 -70 6 -93 25 -20 66 -16 85 9 6 7 26 14 45 14
l34 0 0 -127 c0 -126 0 -128 23 -131 l23 -3 -3 153 -3 153 -53 3 c-36 2 -59 9
-73 23 -24 24 -61 24 -84 -1z m55 -46 c0 -9 -5 -14 -12 -12 -18 6 -21 28 -4
28 9 0 16 -7 16 -16z"/>
<path d="M915 416 c-26 -19 -28 -73 -3 -90 12 -9 20 -26 20 -47 1 -68 48 -77
48 -9 0 24 7 43 20 55 11 10 20 30 20 45 0 51 -62 78 -105 46z m51 -54 c-22
-5 -30 3 -21 18 5 8 11 7 22 -2 15 -12 14 -13 -1 -16z"/>
</g>
</svg>
